<svg width="17" height="17" viewBox="0 0 17 17" fill="none" xmlns="http://www.w3.org/2000/svg">
<path d="M8.4657 4.47547C6.25461 4.47547 4.47113 6.25894 4.47113 8.47004C4.47113 10.6811 6.25461 12.4646 8.4657 12.4646C10.6768 12.4646 12.4603 10.6811 12.4603 8.47004C12.4603 6.25894 10.6768 4.47547 8.4657 4.47547ZM8.4657 11.067C7.03684 11.067 5.86871 9.90238 5.86871 8.47004C5.86871 7.03769 7.03336 5.87305 8.4657 5.87305C9.89805 5.87305 11.0627 7.03769 11.0627 8.47004C11.0627 9.90238 9.89457 11.067 8.4657 11.067ZM13.5554 4.31207C13.5554 4.83008 13.1382 5.24379 12.6237 5.24379C12.1057 5.24379 11.692 4.8266 11.692 4.31207C11.692 3.79754 12.1091 3.38035 12.6237 3.38035C13.1382 3.38035 13.5554 3.79754 13.5554 4.31207ZM16.2011 5.2577C16.142 4.00961 15.8569 2.90406 14.9425 1.9932C14.0317 1.08234 12.9261 0.797266 11.678 0.734687C10.3917 0.66168 6.53621 0.66168 5.24988 0.734687C4.00527 0.793789 2.89973 1.07887 1.98539 1.98973C1.07105 2.90059 0.789453 4.00613 0.726875 5.25422C0.653867 6.54055 0.653867 10.3961 0.726875 11.6824C0.785977 12.9305 1.07105 14.036 1.98539 14.9469C2.89973 15.8577 4.0018 16.1428 5.24988 16.2054C6.53621 16.2784 10.3917 16.2784 11.678 16.2054C12.9261 16.1463 14.0317 15.8612 14.9425 14.9469C15.8534 14.036 16.1385 12.9305 16.2011 11.6824C16.2741 10.3961 16.2741 6.54402 16.2011 5.2577ZM14.5393 13.0626C14.2681 13.744 13.7431 14.2689 13.0582 14.5436C12.0327 14.9504 9.59906 14.8565 8.4657 14.8565C7.33234 14.8565 4.89527 14.9469 3.87316 14.5436C3.19176 14.2724 2.6668 13.7475 2.39215 13.0626C1.98539 12.037 2.07926 9.6034 2.07926 8.47004C2.07926 7.33668 1.98887 4.89961 2.39215 3.8775C2.66332 3.19609 3.18828 2.67113 3.87316 2.39648C4.89875 1.98973 7.33234 2.08359 8.4657 2.08359C9.59906 2.08359 12.0361 1.9932 13.0582 2.39648C13.7396 2.66766 14.2646 3.19262 14.5393 3.8775C14.946 4.90309 14.8521 7.33668 14.8521 8.47004C14.8521 9.6034 14.946 12.0405 14.5393 13.0626Z" fill="#2A2F2F"/>
</svg>
