<svg width="19" height="15" viewBox="0 0 19 15" fill="none" xmlns="http://www.w3.org/2000/svg">
<path d="M16.3463 3.99475C16.3576 4.15286 16.3576 4.31101 16.3576 4.46912C16.3576 9.29181 12.6869 14.8487 5.978 14.8487C3.91112 14.8487 1.99108 14.25 0.375977 13.211C0.669642 13.2449 0.951973 13.2562 1.25694 13.2562C2.96237 13.2562 4.53231 12.6802 5.78599 11.6976C4.18219 11.6637 2.83815 10.6133 2.37507 9.16759C2.60098 9.20145 2.82685 9.22405 3.06405 9.22405C3.39158 9.22405 3.71914 9.17886 4.02407 9.09983C2.35251 8.76097 1.09879 7.29272 1.09879 5.5195V5.47434C1.58443 5.7454 2.1492 5.91482 2.74776 5.93738C1.76514 5.28229 1.12139 4.16416 1.12139 2.89918C1.12139 2.22153 1.30206 1.60033 1.61833 1.0582C3.41414 3.2719 6.11352 4.71756 9.14039 4.87571C9.08393 4.60464 9.05003 4.32231 9.05003 4.03994C9.05003 2.02952 10.6764 0.391846 12.6981 0.391846C13.7485 0.391846 14.6972 0.832326 15.3636 1.54387C16.1881 1.38576 16.9787 1.0808 17.679 0.662913C17.4079 1.51001 16.8319 2.22156 16.0752 2.67331C16.8093 2.59428 17.5209 2.39094 18.1759 2.10861C17.679 2.83142 17.0578 3.47517 16.3463 3.99475Z" fill="#2A2F2F"/>
</svg>
